<svg xmlns="http://www.w3.org/2000/svg" viewBox="0 0 480 300"><defs><linearGradient id="bg" x1="0" y1="0" x2="1" y2="1"><stop stop-color="#eef4ff"/><stop offset="1" stop-color="#e7fff7"/></linearGradient><linearGradient id="arr" x1="0" x2="1"><stop stop-color="#6c5ce7"/><stop offset="1" stop-color="#20b486"/></linearGradient></defs><rect width="480" height="300" rx="28" fill="url(#bg)"/><circle cx="72" cy="55" r="30" fill="#d9e7ff"/><circle cx="414" cy="245" r="38" fill="#d8f8ec"/><rect x="55" y="62" width="126" height="158" rx="15" fill="#fff" stroke="#3155e7" stroke-width="6"/><rect x="299" y="62" width="126" height="158" rx="15" fill="#fff" stroke="#20a77a" stroke-width="6"/><path d="M82 103h70M82 130h54M82 157h44" stroke="#a8b3c9" stroke-width="8" stroke-linecap="round"/><path d="M326 103h70M326 130h54M326 157h44" stroke="#a8b3c9" stroke-width="8" stroke-linecap="round"/><circle cx="240" cy="141" r="43" fill="#fff" stroke="url(#arr)" stroke-width="6"/><path d="M216 141h48M249 125l16 16-16 16" fill="none" stroke="url(#arr)" stroke-width="9" stroke-linecap="round" stroke-linejoin="round"/><path d="M181 92c22-28 76-31 118 0" fill="none" stroke="#c9d8f7" stroke-width="5" stroke-dasharray="7 8"/><text x="240" y="263" text-anchor="middle" font-family="Arial,sans-serif" font-size="20" font-weight="800" fill="#3155e7">MERGE PDF</text></svg>